<svg width="782" height="242" viewBox="0 0 782 242" fill="none" xmlns="http://www.w3.org/2000/svg">
<path d="M142.557 140.129C138.258 136.237 131.618 136.568 127.726 140.867C123.834 145.166 124.165 151.806 128.464 155.698L135.51 147.913L142.557 140.129ZM544.767 131.163C546.009 125.498 542.424 119.899 536.76 118.657L444.454 98.4115C438.79 97.1691 433.191 100.754 431.948 106.418C430.706 112.083 434.291 117.682 439.955 118.924L522.005 136.92L504.009 218.97C502.766 224.634 506.351 230.233 512.015 231.475C517.68 232.718 523.279 229.133 524.521 223.469L544.767 131.163ZM135.51 147.913C128.464 155.698 128.47 155.703 128.476 155.709C128.479 155.711 128.486 155.718 128.492 155.723C128.503 155.733 128.517 155.746 128.534 155.761C128.566 155.79 128.609 155.827 128.66 155.873C128.763 155.965 128.904 156.088 129.082 156.243C129.439 156.551 129.945 156.983 130.599 157.523C131.907 158.605 133.808 160.124 136.287 161.973C141.243 165.671 148.52 170.695 158.002 176.181C176.96 187.151 204.791 199.999 240.539 207.738C312.353 223.285 414.925 217.945 540.172 137.756L534.51 128.913L528.849 120.07C408.096 197.382 311.168 201.542 244.982 187.214C211.73 180.015 185.936 168.082 168.519 158.005C159.813 152.967 153.215 148.402 148.844 145.141C146.658 143.511 145.032 142.208 143.978 141.337C143.452 140.902 143.069 140.575 142.831 140.369C142.712 140.266 142.63 140.194 142.584 140.153C142.561 140.133 142.548 140.121 142.543 140.116C142.541 140.114 142.541 140.114 142.543 140.117C142.544 140.118 142.548 140.121 142.548 140.121C142.552 140.125 142.557 140.129 135.51 147.913Z" fill="#51596D"/>
<g clip-path="url(#clip0_6_101)">
<g filter="url(#filter0_i_6_101)">
<path d="M184.437 39.6134L105.005 18.2323C77.855 10.9243 49.9214 27.0093 42.6134 54.1592L21.2323 133.592C13.9243 160.741 30.0093 188.675 57.1592 195.983L136.592 217.364C163.741 224.672 191.675 208.587 198.983 181.437L220.364 102.005C227.672 74.8551 211.587 46.9214 184.437 39.6134Z" fill="url(#paint0_linear_6_101)"/>
</g>
<path d="M131.564 77.8043C129.119 77.1464 127.658 74.6085 128.316 72.1644L129.512 67.7206C132.816 55.4447 145.436 48.1781 157.712 51.4825L162.155 52.6786C164.599 53.3365 166.061 55.8745 165.403 58.3186L164.207 62.7623C160.903 75.0382 148.283 82.3048 136.007 79.0005L131.564 77.8043ZM56.1932 109.94C61.8973 88.7485 78.0698 68.171 99.261 73.8751C106.843 75.916 115.072 81.1989 120.787 85.4179C125.463 88.8509 131.323 90.4283 137.09 89.8063C144.115 89.0464 153.919 88.5876 161.502 90.6286C182.693 96.3327 186.351 122.248 180.647 143.439C171.077 178.989 141.682 199.671 119.463 193.691C114.88 192.457 109.374 189.009 106.004 186.702C103.964 185.319 101.52 184.661 99.0608 184.833C94.9878 185.137 88.4953 185.355 83.9126 184.121C61.6938 178.141 46.6518 145.497 56.2209 109.947L56.1932 109.94Z" fill="white"/>
</g>
<g clip-path="url(#clip1_6_101)">
<g filter="url(#filter1_i_6_101)">
<path d="M671.007 16.7223L593.789 42.1269C567.396 50.8101 553.039 79.245 561.722 105.638L587.127 182.856C595.81 209.249 624.245 223.606 650.638 214.922L727.856 189.518C754.249 180.835 768.606 152.4 759.922 126.007L734.518 48.7887C725.835 22.3957 697.4 8.0391 671.007 16.7223Z" fill="url(#paint1_linear_6_101)"/>
</g>
<path d="M582.206 85.135C580.243 79.1706 583.488 72.7445 589.452 70.7822L626.473 58.6026C632.437 56.6404 638.863 59.8849 640.825 65.8493L652.997 102.844C654.959 108.809 651.714 115.235 645.75 117.197L608.73 129.377C602.765 131.339 596.339 128.094 594.377 122.13L582.206 85.135ZM647.243 63.7379C645.281 57.7735 648.525 51.3475 654.49 49.3851L691.51 37.2056C697.474 35.2434 703.9 38.4879 705.862 44.4523L718.034 81.4472C719.996 87.4116 716.751 93.8377 710.787 95.8L673.767 107.98C667.802 109.942 661.376 106.697 659.414 100.733L647.243 63.7379ZM603.603 150.172C601.64 144.208 604.885 137.782 610.849 135.819L647.87 123.64C653.834 121.678 660.26 124.922 662.223 130.887L674.402 167.907C676.364 173.871 673.12 180.297 667.155 182.259L630.135 194.439C624.171 196.401 617.745 193.157 615.782 187.192L603.603 150.172Z" fill="white"/>
<path d="M727.259 109.489C725.297 103.525 718.871 100.281 712.907 102.243L675.887 114.422C669.922 116.385 666.678 122.81 668.64 128.775L680.82 165.795C682.782 171.76 689.208 175.004 695.172 173.042L732.192 160.862C738.157 158.9 741.401 152.474 739.439 146.51L727.259 109.489Z" fill="white"/>
</g>
<g filter="url(#filter2_d_6_101)">
<rect x="545.51" y="167.913" width="129" height="62" rx="31" fill="white"/>
</g>
<path d="M585.038 209.913C584.804 209.913 584.612 209.839 584.462 209.689C584.313 209.54 584.238 209.348 584.238 209.113V205.049C584.238 204.836 584.313 204.655 584.462 204.505C584.612 204.335 584.804 204.249 585.038 204.249H589.07C589.305 204.249 589.497 204.335 589.646 204.505C589.817 204.655 589.902 204.836 589.902 205.049V209.113C589.902 209.348 589.817 209.54 589.646 209.689C589.497 209.839 589.305 209.913 589.07 209.913H585.038ZM594.55 209.913C594.316 209.913 594.124 209.839 593.974 209.689C593.825 209.54 593.75 209.348 593.75 209.113V188.313C593.75 188.079 593.825 187.887 593.974 187.737C594.124 187.588 594.316 187.513 594.55 187.513H598.838C599.073 187.513 599.265 187.588 599.414 187.737C599.564 187.887 599.638 188.079 599.638 188.313V209.113C599.638 209.348 599.564 209.54 599.414 209.689C599.265 209.839 599.073 209.913 598.838 209.913H594.55ZM613.309 210.233C611.283 210.233 609.544 209.903 608.093 209.241C606.664 208.58 605.544 207.609 604.733 206.329C603.944 205.049 603.507 203.46 603.421 201.561C603.4 200.687 603.389 199.748 603.389 198.745C603.389 197.743 603.4 196.783 603.421 195.865C603.507 194.009 603.955 192.441 604.765 191.161C605.576 189.86 606.707 188.879 608.157 188.217C609.608 187.535 611.325 187.193 613.309 187.193C614.717 187.193 616.019 187.375 617.213 187.737C618.408 188.079 619.453 188.591 620.349 189.273C621.245 189.935 621.939 190.745 622.429 191.705C622.941 192.644 623.208 193.711 623.229 194.905C623.251 195.097 623.187 195.257 623.037 195.385C622.909 195.513 622.749 195.577 622.557 195.577H618.237C617.96 195.577 617.747 195.524 617.597 195.417C617.448 195.289 617.32 195.065 617.213 194.745C616.915 193.615 616.424 192.847 615.741 192.441C615.08 192.015 614.259 191.801 613.277 191.801C612.104 191.801 611.176 192.132 610.493 192.793C609.811 193.433 609.437 194.511 609.373 196.025C609.309 197.775 609.309 199.567 609.373 201.401C609.437 202.916 609.811 204.004 610.493 204.665C611.176 205.305 612.104 205.625 613.277 205.625C614.259 205.625 615.091 205.412 615.773 204.985C616.456 204.559 616.936 203.791 617.213 202.681C617.299 202.361 617.416 202.148 617.565 202.041C617.736 201.913 617.96 201.849 618.237 201.849H622.557C622.749 201.849 622.909 201.913 623.037 202.041C623.187 202.169 623.251 202.329 623.229 202.521C623.208 203.716 622.941 204.793 622.429 205.753C621.939 206.692 621.245 207.503 620.349 208.185C619.453 208.847 618.408 209.359 617.213 209.721C616.019 210.063 614.717 210.233 613.309 210.233ZM635.746 210.233C633.783 210.233 632.077 209.913 630.626 209.273C629.175 208.633 628.045 207.673 627.234 206.393C626.423 205.092 625.975 203.471 625.89 201.529C625.869 200.612 625.858 199.695 625.858 198.777C625.858 197.86 625.869 196.932 625.89 195.993C625.975 194.073 626.423 192.463 627.234 191.161C628.066 189.839 629.207 188.847 630.658 188.185C632.109 187.524 633.805 187.193 635.746 187.193C637.666 187.193 639.351 187.524 640.802 188.185C642.274 188.847 643.426 189.839 644.258 191.161C645.09 192.463 645.538 194.073 645.602 195.993C645.645 196.932 645.666 197.86 645.666 198.777C645.666 199.695 645.645 200.612 645.602 201.529C645.517 203.471 645.069 205.092 644.258 206.393C643.447 207.673 642.317 208.633 640.866 209.273C639.415 209.913 637.709 210.233 635.746 210.233ZM635.746 205.625C636.877 205.625 637.794 205.284 638.498 204.601C639.223 203.919 639.607 202.831 639.65 201.337C639.693 200.399 639.714 199.513 639.714 198.681C639.714 197.849 639.693 196.985 639.65 196.089C639.607 195.087 639.415 194.276 639.074 193.657C638.754 193.017 638.306 192.548 637.73 192.249C637.154 191.951 636.493 191.801 635.746 191.801C635.021 191.801 634.37 191.951 633.794 192.249C633.218 192.548 632.759 193.017 632.418 193.657C632.077 194.276 631.885 195.087 631.842 196.089C631.821 196.985 631.81 197.849 631.81 198.681C631.81 199.513 631.821 200.399 631.842 201.337C631.906 202.831 632.29 203.919 632.994 204.601C633.698 205.284 634.615 205.625 635.746 205.625Z" fill="#536777"/>
<g filter="url(#filter3_d_6_101)">
<rect x="98.5104" y="167.913" width="129" height="62" rx="31" fill="white"/>
</g>
<path d="M122.038 209.913C121.804 209.913 121.612 209.839 121.462 209.689C121.313 209.54 121.238 209.348 121.238 209.113V205.049C121.238 204.836 121.313 204.655 121.462 204.505C121.612 204.335 121.804 204.249 122.038 204.249H126.07C126.305 204.249 126.497 204.335 126.646 204.505C126.817 204.655 126.902 204.836 126.902 205.049V209.113C126.902 209.348 126.817 209.54 126.646 209.689C126.497 209.839 126.305 209.913 126.07 209.913H122.038ZM131.55 209.913C131.316 209.913 131.124 209.839 130.974 209.689C130.825 209.54 130.75 209.348 130.75 209.113V188.313C130.75 188.079 130.825 187.887 130.974 187.737C131.124 187.588 131.316 187.513 131.55 187.513H135.838C136.073 187.513 136.265 187.588 136.414 187.737C136.564 187.887 136.638 188.079 136.638 188.313V209.113C136.638 209.348 136.564 209.54 136.414 209.689C136.265 209.839 136.073 209.913 135.838 209.913H131.55ZM150.309 210.233C148.283 210.233 146.544 209.903 145.093 209.241C143.664 208.58 142.544 207.609 141.733 206.329C140.944 205.049 140.507 203.46 140.421 201.561C140.4 200.687 140.389 199.748 140.389 198.745C140.389 197.743 140.4 196.783 140.421 195.865C140.507 194.009 140.955 192.441 141.765 191.161C142.576 189.86 143.707 188.879 145.157 188.217C146.608 187.535 148.325 187.193 150.309 187.193C151.717 187.193 153.019 187.375 154.213 187.737C155.408 188.079 156.453 188.591 157.349 189.273C158.245 189.935 158.939 190.745 159.429 191.705C159.941 192.644 160.208 193.711 160.229 194.905C160.251 195.097 160.187 195.257 160.037 195.385C159.909 195.513 159.749 195.577 159.557 195.577H155.237C154.96 195.577 154.747 195.524 154.597 195.417C154.448 195.289 154.32 195.065 154.213 194.745C153.915 193.615 153.424 192.847 152.741 192.441C152.08 192.015 151.259 191.801 150.277 191.801C149.104 191.801 148.176 192.132 147.493 192.793C146.811 193.433 146.437 194.511 146.373 196.025C146.309 197.775 146.309 199.567 146.373 201.401C146.437 202.916 146.811 204.004 147.493 204.665C148.176 205.305 149.104 205.625 150.277 205.625C151.259 205.625 152.091 205.412 152.773 204.985C153.456 204.559 153.936 203.791 154.213 202.681C154.299 202.361 154.416 202.148 154.565 202.041C154.736 201.913 154.96 201.849 155.237 201.849H159.557C159.749 201.849 159.909 201.913 160.037 202.041C160.187 202.169 160.251 202.329 160.229 202.521C160.208 203.716 159.941 204.793 159.429 205.753C158.939 206.692 158.245 207.503 157.349 208.185C156.453 208.847 155.408 209.359 154.213 209.721C153.019 210.063 151.717 210.233 150.309 210.233ZM164.394 209.913C164.159 209.913 163.967 209.839 163.818 209.689C163.669 209.54 163.594 209.348 163.594 209.113V188.313C163.594 188.079 163.669 187.887 163.818 187.737C163.967 187.588 164.159 187.513 164.394 187.513H167.786C168.149 187.513 168.405 187.599 168.554 187.769C168.725 187.919 168.831 188.036 168.874 188.121L176.682 200.441V188.313C176.682 188.079 176.757 187.887 176.906 187.737C177.055 187.588 177.247 187.513 177.482 187.513H181.322C181.557 187.513 181.749 187.588 181.898 187.737C182.047 187.887 182.122 188.079 182.122 188.313V209.113C182.122 209.327 182.047 209.519 181.898 209.689C181.749 209.839 181.557 209.913 181.322 209.913H177.898C177.557 209.913 177.301 209.828 177.13 209.657C176.981 209.487 176.885 209.369 176.842 209.305L169.034 197.465V209.113C169.034 209.348 168.959 209.54 168.81 209.689C168.661 209.839 168.469 209.913 168.234 209.913H164.394ZM194.946 210.233C192.813 210.233 191.042 209.935 189.634 209.337C188.226 208.719 187.159 207.919 186.434 206.937C185.709 205.956 185.325 204.911 185.282 203.801C185.282 203.631 185.346 203.481 185.474 203.353C185.623 203.204 185.794 203.129 185.986 203.129H190.018C190.317 203.129 190.541 203.183 190.69 203.289C190.861 203.396 191.01 203.535 191.138 203.705C191.309 204.025 191.543 204.335 191.842 204.633C192.162 204.932 192.567 205.177 193.058 205.369C193.57 205.54 194.199 205.625 194.946 205.625C196.183 205.625 197.111 205.433 197.73 205.049C198.37 204.665 198.69 204.143 198.69 203.481C198.69 203.012 198.519 202.628 198.178 202.329C197.837 202.009 197.282 201.732 196.514 201.497C195.767 201.241 194.765 200.985 193.506 200.729C191.885 200.388 190.498 199.951 189.346 199.417C188.215 198.863 187.351 198.148 186.754 197.273C186.157 196.377 185.858 195.268 185.858 193.945C185.858 192.644 186.221 191.481 186.946 190.457C187.693 189.433 188.727 188.633 190.05 188.057C191.373 187.481 192.941 187.193 194.754 187.193C196.226 187.193 197.517 187.385 198.626 187.769C199.757 188.153 200.706 188.665 201.474 189.305C202.242 189.945 202.818 190.628 203.202 191.353C203.607 192.057 203.821 192.751 203.842 193.433C203.842 193.604 203.778 193.764 203.65 193.913C203.522 194.041 203.362 194.105 203.17 194.105H198.946C198.711 194.105 198.509 194.063 198.338 193.977C198.167 193.892 198.018 193.753 197.89 193.561C197.762 193.092 197.421 192.687 196.866 192.345C196.333 191.983 195.629 191.801 194.754 191.801C193.815 191.801 193.079 191.972 192.546 192.313C192.034 192.633 191.778 193.135 191.778 193.817C191.778 194.244 191.917 194.617 192.194 194.937C192.493 195.257 192.973 195.535 193.634 195.769C194.317 196.004 195.245 196.249 196.418 196.505C198.359 196.868 199.927 197.327 201.122 197.881C202.317 198.415 203.191 199.119 203.746 199.993C204.301 200.847 204.578 201.924 204.578 203.225C204.578 204.676 204.162 205.935 203.33 207.001C202.519 208.047 201.389 208.847 199.938 209.401C198.487 209.956 196.823 210.233 194.946 210.233Z" fill="#536777"/>
<defs>
<filter id="filter0_i_6_101" x="19.4698" y="16.47" width="202.657" height="202.657" filterUnits="userSpaceOnUse" color-interpolation-filters="sRGB">
<feFlood flood-opacity="0" result="BackgroundImageFix"/>
<feBlend mode="normal" in="SourceGraphic" in2="BackgroundImageFix" result="shape"/>
<feColorMatrix in="SourceAlpha" type="matrix" values="0 0 0 0 0 0 0 0 0 0 0 0 0 0 0 0 0 0 127 0" result="hardAlpha"/>
<feOffset/>
<feGaussianBlur stdDeviation="7.5"/>
<feComposite in2="hardAlpha" operator="arithmetic" k2="-1" k3="1"/>
<feColorMatrix type="matrix" values="0 0 0 0 1 0 0 0 0 1 0 0 0 0 1 0 0 0 1 0"/>
<feBlend mode="normal" in2="shape" result="effect1_innerShadow_6_101"/>
</filter>
<filter id="filter1_i_6_101" x="559.189" y="14.1888" width="203.267" height="203.267" filterUnits="userSpaceOnUse" color-interpolation-filters="sRGB">
<feFlood flood-opacity="0" result="BackgroundImageFix"/>
<feBlend mode="normal" in="SourceGraphic" in2="BackgroundImageFix" result="shape"/>
<feColorMatrix in="SourceAlpha" type="matrix" values="0 0 0 0 0 0 0 0 0 0 0 0 0 0 0 0 0 0 127 0" result="hardAlpha"/>
<feOffset/>
<feGaussianBlur stdDeviation="7.5"/>
<feComposite in2="hardAlpha" operator="arithmetic" k2="-1" k3="1"/>
<feColorMatrix type="matrix" values="0 0 0 0 1 0 0 0 0 1 0 0 0 0 1 0 0 0 1 0"/>
<feBlend mode="normal" in2="shape" result="effect1_innerShadow_6_101"/>
</filter>
<filter id="filter2_d_6_101" x="537.91" y="164.313" width="144.2" height="77.2" filterUnits="userSpaceOnUse" color-interpolation-filters="sRGB">
<feFlood flood-opacity="0" result="BackgroundImageFix"/>
<feColorMatrix in="SourceAlpha" type="matrix" values="0 0 0 0 0 0 0 0 0 0 0 0 0 0 0 0 0 0 127 0" result="hardAlpha"/>
<feOffset dy="4"/>
<feGaussianBlur stdDeviation="3.8"/>
<feComposite in2="hardAlpha" operator="out"/>
<feColorMatrix type="matrix" values="0 0 0 0 0.471154 0 0 0 0 0.471154 0 0 0 0 0.471154 0 0 0 0.25 0"/>
<feBlend mode="normal" in2="BackgroundImageFix" result="effect1_dropShadow_6_101"/>
<feBlend mode="normal" in="SourceGraphic" in2="effect1_dropShadow_6_101" result="shape"/>
</filter>
<filter id="filter3_d_6_101" x="90.9104" y="164.313" width="144.2" height="77.2" filterUnits="userSpaceOnUse" color-interpolation-filters="sRGB">
<feFlood flood-opacity="0" result="BackgroundImageFix"/>
<feColorMatrix in="SourceAlpha" type="matrix" values="0 0 0 0 0 0 0 0 0 0 0 0 0 0 0 0 0 0 127 0" result="hardAlpha"/>
<feOffset dy="4"/>
<feGaussianBlur stdDeviation="3.8"/>
<feComposite in2="hardAlpha" operator="out"/>
<feColorMatrix type="matrix" values="0 0 0 0 0.471154 0 0 0 0 0.471154 0 0 0 0 0.471154 0 0 0 0.25 0"/>
<feBlend mode="normal" in2="BackgroundImageFix" result="effect1_dropShadow_6_101"/>
<feBlend mode="normal" in="SourceGraphic" in2="effect1_dropShadow_6_101" result="shape"/>
</filter>
<linearGradient id="paint0_linear_6_101" x1="144.721" y1="28.9229" x2="96.8754" y2="206.674" gradientUnits="userSpaceOnUse">
<stop stop-color="#027DFF"/>
<stop offset="1" stop-color="#6CB6FF"/>
</linearGradient>
<linearGradient id="paint1_linear_6_101" x1="632.398" y1="29.4246" x2="689.247" y2="202.22" gradientUnits="userSpaceOnUse">
<stop stop-color="#027DFF"/>
<stop offset="1" stop-color="#6CB6FF"/>
</linearGradient>
<clipPath id="clip0_6_101">
<rect width="184.078" height="184.078" fill="white" transform="translate(55.8457 5) rotate(15.0654)"/>
</clipPath>
<clipPath id="clip1_6_101">
<rect width="181.907" height="181.907" fill="white" transform="translate(546 57.8492) rotate(-18.2111)"/>
</clipPath>
</defs>
</svg>
