<svg width="680" height="680" viewBox="0 0 680 680" fill="none" xmlns="http://www.w3.org/2000/svg">
<g clip-path="url(#clip0_2_10)">
<path d="M317.673 250H131.327C67.6335 250 16 301.633 16 365.327V551.673C16 615.367 67.6335 667 131.327 667H317.673C381.367 667 433 615.367 433 551.673V365.327C433 301.633 381.367 250 317.673 250Z" fill="url(#paint0_linear_2_10)"/>
<path d="M75.2922 335.355C75.2922 320.961 86.9611 309.292 101.355 309.292H190.694C205.088 309.292 216.757 320.961 216.757 335.355V424.633C216.757 439.027 205.088 450.696 190.694 450.696H101.355C86.9611 450.696 75.2922 439.027 75.2922 424.633V335.355ZM75.2922 492.306C75.2922 477.912 86.9611 466.244 101.355 466.244H190.694C205.088 466.244 216.757 477.912 216.757 492.306V581.645C216.757 596.039 205.088 607.708 190.694 607.708H101.355C86.9611 607.708 75.2922 596.039 75.2922 581.645V492.306Z" fill="white"/>
<path d="M373.708 492.306C373.708 477.912 362.039 466.244 347.645 466.244H258.306C243.912 466.244 232.244 477.912 232.244 492.306V581.645C232.244 596.039 243.912 607.708 258.306 607.708H347.645C362.039 607.708 373.708 596.039 373.708 581.645V492.306Z" fill="white"/>
</g>
<g clip-path="url(#clip1_2_10)">
<path d="M524.269 48H343.731C282.024 48 232 98.0238 232 159.731V340.269C232 401.976 282.024 452 343.731 452H524.269C585.976 452 636 401.976 636 340.269V159.731C636 98.0238 585.976 48 524.269 48Z" fill="url(#paint1_linear_2_10)"/>
<path d="M434 159.1C428.445 159.1 423.9 154.555 423.9 149V138.9C423.9 110.999 446.499 88.4 474.4 88.4H484.5C490.055 88.4 494.6 92.945 494.6 98.5V108.6C494.6 136.501 472.001 159.1 444.1 159.1H434ZM292.6 270.2C292.6 222.036 315.136 169.2 363.3 169.2C380.533 169.2 400.986 175.702 415.504 181.383C427.372 185.991 440.691 185.991 452.559 181.383C467.014 175.765 487.53 169.2 504.763 169.2C552.927 169.2 575.463 222.036 575.463 270.2C575.463 351 524.963 411.6 474.463 411.6C464.047 411.6 450.412 407.434 441.954 404.467C436.841 402.699 431.286 402.699 426.172 404.467C417.714 407.434 404.079 411.6 393.663 411.6C343.163 411.6 292.663 351 292.663 270.2H292.6Z" fill="white"/>
</g>
<defs>
<linearGradient id="paint0_linear_2_10" x1="224.5" y1="250" x2="224.5" y2="667" gradientUnits="userSpaceOnUse">
<stop stop-color="#027DFF"/>
<stop offset="1" stop-color="#6CB6FF"/>
</linearGradient>
<linearGradient id="paint1_linear_2_10" x1="434" y1="48" x2="434" y2="452" gradientUnits="userSpaceOnUse">
<stop stop-color="#027DFF"/>
<stop offset="1" stop-color="#6CB6FF"/>
</linearGradient>
<clipPath id="clip0_2_10">
<rect width="417" height="417" fill="white" transform="translate(16 250)"/>
</clipPath>
<clipPath id="clip1_2_10">
<rect width="404" height="404" fill="white" transform="translate(232 48)"/>
</clipPath>
</defs>
</svg>
